<svg version="1.2" xmlns="http://www.w3.org/2000/svg" viewBox="0 0 1500 500" width="1500" height="500"><style></style><path  d="m419.6 293h25.5l-47-105h-24l-46.8 105h24.9l9.3-22.5h48.8zm-50.3-40.9l16.7-40.2 16.6 40.2zm85.1 40.9h23.4v-111.3h-23.4zm45.1 0h23.4v-111.3h-23.4zm42.2-32.9h42.4v-18.7h-42.4zm86.7 13.3v-24.3h48.7v-18.8h-48.7v-22.9h55.2v-19.5h-79.4v105h81.3v-19.5zm131.7-61.1l-23.1 54.8-22.3-54.8h-24.2l33.9 80.7 24.2-0.1 34-80.6zm108.9 40.6c0-26-18.3-41.8-42-41.8-24.6 0-43 17.3-43 41.5 0 24 18.1 41.5 46 41.5 14.6 0 25.8-4.5 33.3-13l-12.4-13.5c-5.6 5.2-11.7 7.8-20.3 7.8-12.3 0-20.8-6.2-23.1-16.2h61.1c0.1-2 0.4-4.5 0.4-6.3zm-41.8-24.2c10.5 0 18.1 6.6 19.8 16.8h-39.8c1.7-10.3 9.3-16.8 20-16.8zm106.5-17.6c-11 0-20.4 3.7-26.7 10.6v-9.5h-22.4v80.7h23.4v-39.9c0-14.8 8.1-21.7 19.4-21.7 10.3 0 16.3 6 16.3 19v42.6h23.4v-46.2c0-24.6-14.4-35.6-33.4-35.6zm100.3 61.5c-2.5 1.9-6 3-9.4 3-6.3 0-10.1-3.8-10.1-10.7v-32.9h20.1v-17.9h-20.1v-19.7h-23.4v19.7h-12.4v17.9h12.4v33.2c0 19.2 11.1 28.9 30.2 28.9 7.2 0 14.2-1.6 19-5zm46.7 21.5c24.1 0 38.1-10.6 38.1-25.6 0-31.8-48.8-18.5-48.8-32.3 0-4.2 4.5-7.5 15-7.5 7.4 0 15.3 1.5 23.3 6l7.8-16.6c-7.7-4.5-20-7-31.1-7-23.5 0-37.3 10.7-37.3 26 0 32.3 48.7 18.8 48.7 32 0 4.5-4 7.3-14.8 7.3-9.9 0-20.9-3.1-28.1-7.8l-7.8 16.8c7.5 5 21.3 8.7 35 8.7z"/></svg>